<svg width="16" height="12" viewBox="0 0 16 12" fill="none" xmlns="http://www.w3.org/2000/svg">
<path d="M2.56609 6.39643L1.35898 6.39643L2.21253 7.24999L5.62292 10.6604L5.97647 10.3068L5.62292 10.6604C5.71148 10.7489 5.71148 10.8925 5.62292 10.981C5.53441 11.0695 5.39078 11.0695 5.30228 10.981L0.651304 6.33004C0.56274 6.24148 0.56274 6.09796 0.651303 6.0094L0.297751 5.65585L0.651308 6.00939L5.30202 1.35857C5.34656 1.31406 5.40384 1.29203 5.46248 1.29203C5.52115 1.29203 5.5784 1.31408 5.6228 1.35842C5.71137 1.44699 5.71137 1.5905 5.6228 1.67907L5.6228 1.67907L2.21253 5.08946L1.35901 5.94301L2.56609 5.94301L14.9873 5.94301C15.1125 5.94301 15.214 6.04457 15.214 6.16972C15.214 6.2949 15.1125 6.39643 14.9873 6.39643L2.56609 6.39643Z" fill="#0C0B0B" stroke="#0C0B0B"/>
</svg>
