<svg width="16" height="12" viewBox="0 0 16 12" fill="none" xmlns="http://www.w3.org/2000/svg">
<path d="M13.3333 5.94274H14.5404L13.6869 5.08918L10.2765 1.6788L9.92294 2.03235L10.2765 1.6788C10.1879 1.59024 10.1879 1.44672 10.2765 1.35816C10.365 1.26965 10.5086 1.26965 10.5971 1.35816L15.2481 6.00913C15.3367 6.09769 15.3367 6.24121 15.2481 6.32977L15.6017 6.68333L15.2481 6.32978L10.5974 10.9806C10.5529 11.0251 10.4956 11.0471 10.4369 11.0471C10.3783 11.0471 10.321 11.0251 10.2766 10.9807C10.188 10.8922 10.188 10.7487 10.2766 10.6601L10.2766 10.6601L13.6869 7.24971L14.5404 6.39617H13.3333H0.912086C0.786934 6.39617 0.685371 6.2946 0.685371 6.16945C0.685371 6.04427 0.786907 5.94274 0.912086 5.94274H13.3333Z" fill="#0C0B0B" stroke="#0C0B0B"/>
</svg>
