<svg width="33" height="32" viewBox="0 0 33 32" fill="none" xmlns="http://www.w3.org/2000/svg">
<path d="M31.6474 5.19418L27.2838 0.826856C26.1844 -0.273531 24.2717 -0.275644 23.168 0.82897L3.61972 20.5701C3.53306 20.6576 3.47054 20.7649 3.43644 20.8829L0.527397 31.0734C0.454988 31.3271 0.525965 31.6008 0.712783 31.7878C0.851261 31.9264 1.03665 32.001 1.22701 32.001C1.29376 32.001 1.36126 31.9918 1.42658 31.9733L11.6084 29.0617C11.7263 29.0276 11.8335 28.965 11.9209 28.8783L31.6474 9.31127C32.1972 8.76111 32.4997 8.03034 32.4997 7.25273C32.4997 6.47511 32.1972 5.74434 31.6474 5.19418Z" fill="url(#paint0_linear)"/>
<defs>
<linearGradient id="paint0_linear" x1="7.09132" y1="13.0226" x2="26.0045" y2="21.8383" gradientUnits="userSpaceOnUse">
<stop stop-color="white" stop-opacity="0.2"/>
<stop offset="1" stop-color="white" stop-opacity="0"/>
</linearGradient>
</defs>
</svg>
