<svg width="8" height="5" viewBox="0 0 8 5" fill="none" xmlns="http://www.w3.org/2000/svg">
<path d="M4.56226 4.06846L7.53931 1.09141C7.72095 0.909775 7.72095 0.615195 7.53931 0.433558C7.35763 0.251884 7.06313 0.251884 6.88146 0.433558L4.6985 2.61652C4.6985 2.61652 4.47883 2.86252 4.23511 2.85736C3.99724 2.85232 3.76817 2.61652 3.76817 2.61652L1.58521 0.433632C1.40354 0.251958 1.10903 0.251958 0.927359 0.433632C0.836596 0.524432 0.791122 0.643514 0.791122 0.762559C0.791122 0.881603 0.836596 1.00065 0.927359 1.09149L3.90441 4.06846C4.08608 4.25013 4.38059 4.25013 4.56226 4.06846Z" fill="#0C0B0B" stroke="#0C0B0B" stroke-width="0.5"/>
</svg>
